<?xml version="1.0" encoding="utf-8"?>
<svg xmlns="http://www.w3.org/2000/svg" viewBox="-993.753 -831.166 2000.1 1998.725">
  <g transform="matrix(0.1, 0, 0, -0.1, -993.70343, 1168.183838)" fill="#000000" stroke="none">
    <path d="M 2820 19993 C 2419 19964 2025 19858 1679 19685 C 723 19207 96 18279 10 17216 C -4 17036 -4 2964 10 2784 C 68 2061 374 1398 886 886 C 1360 413 1928 131 2631 23 C 2739 7 17097 2 17205 10 C 17787 53 18335 260 18803 614 C 19489 1133 19921 1921 19990 2784 C 20004 2964 20004 17036 19990 17216 C 19940 17839 19707 18415 19311 18897 C 18928 19363 18395 19715 17823 19880 C 17702 19914 17472 19962 17335 19981 C 17264 19991 2845 19995 2820 19993 Z M 8827 16949 C 8833 16950 15269 11406 15268 11405 C 15258 11398 11101 7874 11085 7859 C 11065 7842 9518 9268 9518 9268 C 9518 9268 11843 11374 11873 11400 C 11879 11405 6451 16068 6451 16071 C 6450 16077 8807 16948 8827 16949 Z M 8352 4248 C 8348 4244 6077 3030 6075 3030 C 6072 3030 6070 11915 6070 11915 L 8355 13247 C 8355 13247 8357 4253 8352 4248 Z"/>
  </g>
</svg>