<?xml version="1.0" encoding="utf-8"?>
<svg xmlns="http://www.w3.org/2000/svg" viewBox="0 0 500 500">
  <ellipse style="fill: rgb(64, 62, 62);" cx="250" cy="250" rx="250" ry="250"/>
  <path style="stroke-width: 0.73; fill: rgb(255, 255, 255);" d="M 51.471 303.101 L 64.057 290.525 L 64.122 209.222 L 132.244 209.222 L 88.465 241.331 L 88.451 254.012 L 140.03 254.012 L 140.03 285.169 L 88.882 285.169 L 76.343 297.827 L 152.681 297.827 L 152.681 241.353 L 109.862 241.353 L 152.667 209.223 L 152.681 196.564 L 51.471 196.564 L 51.471 303.101 Z M 189.662 290.59 L 189.662 196.564 L 177.011 196.564 L 177.011 303.436 L 189.662 290.59 Z M 300.605 290.581 L 300.605 254.012 L 337.586 254.012 L 337.586 241.353 L 300.605 241.353 L 300.605 209.222 L 359.969 209.222 L 359.969 196.564 L 287.954 196.564 L 287.954 303.126 L 300.605 290.581 Z M 389.164 290.581 L 389.164 254.012 L 426.145 254.012 L 426.145 241.353 L 389.164 241.353 L 389.164 209.222 L 448.529 209.222 L 448.529 196.564 L 376.513 196.564 L 376.513 249.845 L 376.513 303.126 L 389.164 290.581 Z M 263.624 297.827 L 263.624 196.564 L 250.973 196.564 L 250.973 285.169 L 214.422 285.169 L 201.884 297.827 L 263.624 297.827 Z" id="path263245"/>
</svg>