<?xml version="1.0" encoding="utf-8"?>
<svg xmlns="http://www.w3.org/2000/svg" viewBox="0 0 500 500">
  <path style="fill: rgb(0, 0, 0); stroke-width: 0.73;" d="M 54.673 300.628 L 67.259 288.052 L 67.324 206.749 L 135.446 206.749 L 91.667 238.858 L 91.653 251.539 L 143.232 251.539 L 143.232 282.696 L 92.084 282.696 L 79.545 295.354 L 155.883 295.354 L 155.883 238.88 L 113.064 238.88 L 155.869 206.75 L 155.883 194.091 L 54.673 194.091 L 54.673 300.628 Z M 192.864 288.117 L 192.864 194.091 L 180.213 194.091 L 180.213 300.963 L 192.864 288.117 Z M 303.807 288.108 L 303.807 251.539 L 340.788 251.539 L 340.788 238.88 L 303.807 238.88 L 303.807 206.749 L 363.171 206.749 L 363.171 194.091 L 291.156 194.091 L 291.156 300.653 L 303.807 288.108 Z M 392.366 288.108 L 392.366 251.539 L 429.347 251.539 L 429.347 238.88 L 392.366 238.88 L 392.366 206.749 L 451.731 206.749 L 451.731 194.091 L 379.715 194.091 L 379.715 247.372 L 379.715 300.653 L 392.366 288.108 Z M 266.826 295.354 L 266.826 194.091 L 254.175 194.091 L 254.175 282.696 L 217.624 282.696 L 205.086 295.354 L 266.826 295.354 Z" id="path263245"/>
</svg>