<svg xmlns="http://www.w3.org/2000/svg" xmlns:xlink="http://www.w3.org/1999/xlink" viewBox="0 0 600 600" fill="none">
  <defs>
    <filter id="bgBlur" x="-100%" y="-100%" width="300%" height="300%">
      <feGaussianBlur stdDeviation="30"/>
    </filter>
    <filter id="edgeGlow" x="-30%" y="-30%" width="160%" height="160%">
      <feGaussianBlur stdDeviation="4"/>
    </filter>
    <filter id="hexGlow" x="-50%" y="-50%" width="200%" height="200%">
      <feGaussianBlur stdDeviation="5"/>
    </filter>
    <!-- Fade-out mask for edges -->
    <radialGradient id="fadeMask" cx="50%" cy="50%" r="50%">
      <stop offset="50%" stop-color="white" stop-opacity="1"/>
      <stop offset="60%" stop-color="white" stop-opacity="0.8"/>
      <stop offset="65%" stop-color="white" stop-opacity="0.3"/>
      <stop offset="68%" stop-color="white" stop-opacity="0"/>
    </radialGradient>
    <mask id="edgeFade">
      <rect x="0" y="0" width="600" height="600" fill="url(#fadeMask)"/>
    </mask>

    <radialGradient id="hexFill" cx="50%" cy="50%" r="50%">
      <stop offset="0%" stop-color="black" stop-opacity="1"/>
      <stop offset="65%" stop-color="black" stop-opacity="1"/>
      <stop offset="100%" stop-color="black" stop-opacity="0.3"/>
    </radialGradient>

    <!-- ============================================================ -->
    <!-- ICON SYMBOLS — НЕ ИЗМЕНЯТЬ СОДЕРЖИМОЕ PATH / D-АТРИБУТОВ!   -->
    <!-- ============================================================ -->

    <!-- binance.svg — DO NOT modify paths! -->
    <symbol id="icon-binance" viewBox="0 0 32 32">
      <path fill="#fff" d="M15.986 1.019l9.189 9.159-3.396 3.393-5.793-5.793-5.793 5.823-3.396-3.393 9.189-9.189zM4.399 12.605l3.365 3.395-3.363 3.365-3.396-3.365zM15.986 12.607l3.394 3.363-3.395 3.395-3.395-3.365 3.395-3.393zM27.572 12.605l3.423 3.395-3.393 3.395-3.395-3.395zM21.778 18.399l3.396 3.393-9.189 9.189-9.189-9.187 3.396-3.395 5.793 5.823 5.793-5.823z"/>
    </symbol>

    <!-- dmarket.svg — DO NOT modify paths! -->
    <symbol id="icon-dmarket" viewBox="0 0 2000 1948.05">
      <path opacity="0.25" fill="#00e6db" d="M 857 890.24 L 625.08 489 L 389.28 83.76 C 375.797 60.891 377.64 1891.47 391.28 1868.1 L 625.14 1462.92 L 857 1057.76 C 886.225 1005.744 886.225 942.256 857 890.24 Z"/>
      <path opacity="0.25" fill="#00e6db" d="M 1975.62 878.55 L 1741.76 475.31 L 1502.06 60.39 C 1490.998 41.577 1476.448 25.048 1459.19 11.69 C 1449.44 3.9 1439.69 0 1428 0 C 1305.22 0 1221.42 3.9 1159.06 3.9 C 1149.32 3.9 1445.54 944.82 1445.54 974.04 C 1445.54 1003.26 1147.42 1942.18 1157.16 1942.18 C 1213.68 1942.18 1133.77 1948.02 1433.89 1948.02 C 1439.74 1948.02 1447.53 1946.02 1453.38 1944.12 C 1474.82 1936.33 1488.46 1911 1500.15 1889.58 L 1739.86 1472.71 L 1971.77 1069.47 C 2008.77 1011 2008.77 938.94 1975.67 878.55"/>
      <path fill="#00cfc5" d="M 1880.13 890.24 L 1414.36 83.76 C 1385.13 33.12 1330.56 0 1270.15 0 L 338.61 0 C 307.43 0 276.292 11.69 249.002 27.27 L 250.91 27.27 C 273.299 41.535 291.997 60.891 305.48 83.76 L 539.34 489 C 560.78 479.26 586.11 473.42 609.5 473.42 L 995.36 473.42 C 1055.77 473.42 1110.36 504.59 1139.57 557.18 L 1332.5 890.24 C 1361.73 940.89 1361.73 1005.17 1332.5 1057.77 L 1139.57 1390.88 C 1110.34 1441.53 1053.82 1474.64 995.36 1474.64 L 611.44 1474.64 C 587.204 1474.562 563.271 1469.247 541.28 1459.06 L 307.43 1864.24 C 293.947 1887.109 275.249 1906.465 252.86 1920.73 L 252.86 1922.73 C 278.19 1938.31 309.38 1948.05 340.56 1948.05 L 1274 1948.05 C 1334.41 1948.05 1389 1916.88 1418.21 1864.29 L 1884 1057.76 C 1911.31 1005.17 1911.31 942.83 1880.13 890.24"/>
      <path fill="#00e6db" d="M 771.25 890.24 L 539.34 489 L 305.48 83.76 C 291.997 60.891 273.299 41.311 250.91 27.046 L 249 27.27 C 225.09 41.113 205.517 61.351 192.48 85.71 L 19 387.65 C -6.331 430.972 -6.331 484.588 19 527.91 L 229.47 892.18 C 245.06 917.5 250.91 946.72 250.91 975.94 C 250.742 1005.196 243.379 1033.961 229.47 1059.7 L 19 1422 C -6.331 1465.322 -6.331 1518.938 19 1562.26 L 194.4 1866.18 C 208.04 1889.56 230.227 1909.476 253.617 1923.116 L 254.697 1923.018 C 278.087 1909.378 293.85 1891.5 307.49 1868.13 L 541.3 1463 L 773.2 1061.71 C 802.43 1005.17 802.43 942.83 771.25 890.24 Z"/>
    </symbol>

    <!-- buff.svg — DO NOT modify paths! -->
    <symbol id="icon-buff" viewBox="0 0 500 500">
      <path fill="#fff" stroke-width="0.73" d="M 54.673 300.628 L 67.259 288.052 L 67.324 206.749 L 135.446 206.749 L 91.667 238.858 L 91.653 251.539 L 143.232 251.539 L 143.232 282.696 L 92.084 282.696 L 79.545 295.354 L 155.883 295.354 L 155.883 238.88 L 113.064 238.88 L 155.869 206.75 L 155.883 194.091 L 54.673 194.091 L 54.673 300.628 Z M 192.864 288.117 L 192.864 194.091 L 180.213 194.091 L 180.213 300.963 L 192.864 288.117 Z M 303.807 288.108 L 303.807 251.539 L 340.788 251.539 L 340.788 238.88 L 303.807 238.88 L 303.807 206.749 L 363.171 206.749 L 363.171 194.091 L 291.156 194.091 L 291.156 300.653 L 303.807 288.108 Z M 392.366 288.108 L 392.366 251.539 L 429.347 251.539 L 429.347 238.88 L 392.366 238.88 L 392.366 206.749 L 451.731 206.749 L 451.731 194.091 L 379.715 194.091 L 379.715 247.372 L 379.715 300.653 L 392.366 288.108 Z M 266.826 295.354 L 266.826 194.091 L 254.175 194.091 L 254.175 282.696 L 217.624 282.696 L 205.086 295.354 L 266.826 295.354 Z"/>
    </symbol>

    <!-- bitskins.svg — DO NOT modify paths! -->
    <symbol id="icon-bitskins" viewBox="0 0 39.27 31.402">
      <path fill-rule="evenodd" clip-rule="evenodd" d="M239.8 263.486l3.013-4.445 2.321 3.427-.686 1.018zm-8.8 19.968h-5.017l-13.457-19.987H217.3L224.59 274.3l1.286-1.868 4.8-.014-.015.023-3.671 5.424 1.531 2.274 6.942-10.245h-3.078v.006h-7.748l-4.328-6.433h4.812l1.725 2.511h15.933zm-15.458-26.421h25.621l-4.375 6.453-4.9-.019 1.662-2.49H212.892zm27.231-2.49h-28.57v.018l-5.336 7.94 15.791 23.444h7.668l15.811-23.481z" transform="translate(-208.873 -254.543)" fill="#00e6db"/>
    </symbol>

    <!-- steam.svg — DO NOT modify paths! -->
    <symbol id="icon-steam" viewBox="0 0 76 76">
      <path fill="#fff" fill-opacity="1" stroke-width="0.2" stroke-linejoin="round" d="M 53.0417,31.6667C 55.2278,31.6667 57,33.4389 57,35.625C 57,37.8111 55.2278,39.5833 53.0417,39.5833C 50.8555,39.5833 49.0833,37.8111 49.0833,35.625C 49.0833,33.4389 50.8555,31.6667 53.0417,31.6667 Z M 21.375,30.0833C 24.4356,30.0833 26.9167,32.5644 26.9167,35.625L 26.8865,36.2063L 38.6149,42.2885C 39.5442,41.5844 40.7025,41.1667 41.9583,41.1667L 45.9167,35.625C 45.9167,31.69 49.1066,28.5 53.0417,28.5C 56.9767,28.5 60.1667,31.69 60.1667,35.625C 60.1667,39.56 56.9767,42.75 53.0417,42.75L 47.5,46.7083C 47.5,49.7689 45.0189,52.25 41.9583,52.25C 38.8977,52.25 36.4167,49.7689 36.4167,46.7083C 36.4167,46.639 36.4179,46.5699 36.4205,46.5011L 24.4014,40.2681C 23.5313,40.8364 22.4917,41.1667 21.375,41.1667C 18.3144,41.1667 15.8333,38.6856 15.8333,35.625C 15.8333,32.5644 18.3144,30.0833 21.375,30.0833 Z M 43.6027,44.8752C 44.7714,45.4707 45.2361,46.9009 44.6406,48.0696C 44.0452,49.2383 42.615,49.703 41.4463,49.1075L 38.0512,47.3468C 38.3565,49.2294 39.9896,50.6667 41.9583,50.6667C 44.1445,50.6667 45.9167,48.8945 45.9167,46.7083C 45.9167,44.5222 44.1444,42.75 41.9583,42.75C 41.3466,42.75 40.7673,42.8888 40.2501,43.1366L 43.6027,44.8752 Z M 21.375,31.6667C 19.1889,31.6667 17.4167,33.4389 17.4167,35.625C 17.4167,37.8111 19.1889,39.5833 21.375,39.5833C 21.827,39.5833 22.2613,39.5076 22.6659,39.3681L 20.0379,38.0052C 18.8692,37.4097 18.4045,35.9796 19,34.8109C 19.5955,33.6422 21.0256,33.1775 22.1944,33.773L 25.3269,35.3975C 25.209,33.3172 23.4847,31.6667 21.375,31.6667 Z M 53.0417,30.0833C 49.9811,30.0833 47.5,32.5644 47.5,35.625C 47.5,38.6856 49.9811,41.1667 53.0417,41.1667C 56.1022,41.1667 58.5833,38.6856 58.5833,35.625C 58.5833,32.5644 56.1022,30.0833 53.0417,30.0833 Z "/>
    </symbol>

    <!-- csgotm.svg — DO NOT modify paths! -->
    <symbol id="icon-csgotm" viewBox="0 0 35 40">
      <path fill-rule="evenodd" clip-rule="evenodd" d="M35 4.33471C35 4.33471 26.1632 0.452881 17.3329 0.452881C8.50252 0.452881 0 4.33471 0 4.33471V12.8169H2.75591V6.19133C3.78462 5.7992 4.92329 5.4079 6.14629 5.04036C9.94634 3.89838 13.7708 3.21573 17.3501 3.21573C20.9129 3.21801 24.8012 3.90232 28.7048 5.04582C29.9782 5.41882 31.1675 5.81626 32.244 6.21454V12.8169H35V4.33471ZM35 22.9016V31.7567L17.5236 39.4529L0 31.7567V22.9016H2.75591V29.9507L17.5221 36.4358L32.2441 29.9527V22.9016H35ZM9.71819 10.8116C16.2988 9.40629 19.3936 11.5424 20.3044 12.2169C19.7586 17.1637 16.8185 18.9432 16.8185 18.8501C16.2463 17.7258 15.388 17.1637 15.388 17.1637C12.2407 19.9743 12.5793 24.8649 12.5793 24.8649C18.0155 28.2376 22.8795 25.1459 22.8795 25.1459C21.9686 24.8649 20.8767 23.7406 20.8767 23.7406C20.8767 23.7406 22.8795 23.3726 24.5962 19.9255C26.3129 16.4783 24.5962 10.8116 24.5962 10.8116C25.1684 11.3737 27.6909 14.7465 27.6909 19.2436C27.6909 23.386 24.7507 26.0591 23.3992 27.0009C21.5199 28.3105 16.9874 29.2422 13.3292 27.9112C9.67109 26.5803 7.42927 23.386 7.42927 19.5246C7.42927 14.3354 11.1488 11.9359 11.1488 11.9359C10.8626 11.3737 9.71819 10.8116 9.71819 10.8116Z" fill="#00e6db"/>
    </symbol>

    <!-- Circular text path -->
    <path id="textCircle" d="M 300,90 A 210,210 0 1 1 299.999,90"/>

    <!-- profiton-no-bg.svg — DO NOT modify paths! -->
    <symbol id="icon-profiton" viewBox="-500 -600 1600 1600">
      <g transform="matrix(0.1, 0, 0, -0.1, -698.415771, 1194.807495)" fill="#fff" stroke="none">
        <path d="M 8827 16949 C 8833 16950 15269 11406 15268 11405 C 15258 11398 11101 7874 11085 7859 C 11065 7842 9518 9268 9518 9268 C 9518 9268 11843 11374 11873 11400 C 11879 11405 6451 16068 6451 16071 C 6450 16077 8807 16948 8827 16949 Z M 8352 4248 C 8348 4244 6077 3030 6075 3030 C 6072 3030 6070 11915 6070 11915 L 8355 13247 C 8355 13247 8357 4253 8352 4248 Z"/>
      </g>
    </symbol>
  </defs>

  <g mask="url(#edgeFade)">
  <!-- Layer 0: Teal center glow -->
  <circle cx="300" cy="300" r="180" fill="#00e6db" opacity="0.5" filter="url(#bgBlur)"/>

  <!-- Layer 1: Triangles (inner_r=28, outer_r=183, half_base=90) -->

  <!-- Pos 0 (top): binance - DARK -->
  <polygon points="300,272 210,117 390,117" fill="black" fill-opacity="0.5"/>
  <use href="#icon-binance" x="257" y="126" width="86" height="86"/>

  <!-- Pos 1 (top-right): dmarket - GLOW -->
  <polygon points="324,286 414,131 504,286" stroke="#00e6db" stroke-width="6" fill="none" filter="url(#edgeGlow)"/>
  <polygon points="324,286 414,131 504,286" fill="black" fill-opacity="0.5"/>
  <use href="#icon-dmarket" x="381" y="193" width="82" height="82"/>

  <!-- Pos 2 (bottom-right): buff - DARK -->
  <polygon points="324,314 504,314 414,469" fill="black" fill-opacity="0.5"/>
  <use href="#icon-buff" x="357" y="303" width="126" height="126"/>

  <!-- Pos 3 (bottom): bitskins - GLOW -->
  <polygon points="300,328 390,483 210,483" stroke="#00e6db" stroke-width="6" fill="none" filter="url(#edgeGlow)"/>
  <polygon points="300,328 390,483 210,483" fill="black" fill-opacity="0.5"/>
  <use href="#icon-bitskins" x="257" y="396" width="86" height="86"/>

  <!-- Pos 4 (bottom-left): steam - DARK -->
  <polygon points="276,314 96,314 186,469" fill="black" fill-opacity="0.5"/>
  <use href="#icon-steam" x="114" y="294" width="144" height="144"/>

  <!-- Pos 5 (top-left): csgotm - GLOW -->
  <polygon points="276,286 96,286 186,131" stroke="#00e6db" stroke-width="6" fill="none" filter="url(#edgeGlow)"/>
  <polygon points="276,286 96,286 186,131" fill="black" fill-opacity="0.5"/>
  <use href="#icon-csgotm" x="145" y="197" width="82" height="82"/>

  <!-- Layer 2: Center hexagon (flat-top) -->
  <polygon points="385,300 342,374 258,374 215,300 258,226 342,226" stroke="#00e6db" stroke-width="6" fill="none" filter="url(#hexGlow)"/>
  <polygon points="385,300 342,374 258,374 215,300 258,226 342,226" fill="url(#hexFill)"/>
  <use href="#icon-profiton" x="244" y="244" width="112" height="112"/>
  </g>

  <!-- Circular text around the image -->
  <text font-family="Arial, Helvetica, sans-serif" font-size="28" fill="white" opacity="0.08" font-weight="600">
    <textPath href="#textCircle" textLength="1320" lengthAdjust="spacingAndGlyphs">ROFITON · PROFITON · PROFITON · PROFITON · PROFITON · PROFITON · PROFITON · PROFITON · P</textPath>
  </text>
</svg>
