<?xml version="1.0" encoding="utf-8"?>
<svg xmlns="http://www.w3.org/2000/svg" viewBox="-500 -600 1600 1600">
  <g transform="matrix(0.1, 0, 0, -0.1, -698.415771, 1194.807495)" fill="#000000" stroke="none">
    <path d="M 8827 16949 C 8833 16950 15269 11406 15268 11405 C 15258 11398 11101 7874 11085 7859 C 11065 7842 9518 9268 9518 9268 C 9518 9268 11843 11374 11873 11400 C 11879 11405 6451 16068 6451 16071 C 6450 16077 8807 16948 8827 16949 Z M 8352 4248 C 8348 4244 6077 3030 6075 3030 C 6072 3030 6070 11915 6070 11915 L 8355 13247 C 8355 13247 8357 4253 8352 4248 Z"/>
  </g>
</svg>