<svg width="38" height="38" viewBox="0 0 38 38" fill="none" xmlns="http://www.w3.org/2000/svg">
<g clip-path="url(#clip0_102_8)">
<path d="M19 38C29.4934 38 38 29.4934 38 19C38 8.50659 29.4934 0 19 0C8.50659 0 0 8.50659 0 19C0 29.4934 8.50659 38 19 38Z" fill="url(#paint0_linear_102_8)"/>
<path d="M19.1544 9.26807C16.457 9.26807 14.25 11.4751 14.25 14.1725V16.1343H16.2118V14.1725C16.2118 12.5541 17.536 11.2298 19.1544 11.2298C20.773 11.2298 22.0971 12.5541 22.0971 14.1725V16.1343H24.059V14.1725C24.059 11.4751 21.8519 9.26807 19.1544 9.26807Z" fill="white"/>
<path d="M25.0398 28.8863H13.2691C12.1901 28.8863 11.3073 28.0036 11.3073 26.9246V18.0966C11.3073 17.0176 12.1901 16.1348 13.2691 16.1348H25.0398C26.1188 16.1348 27.0017 17.0176 27.0017 18.0966V26.9246C27.0017 28.0036 26.1188 28.8863 25.0398 28.8863Z" fill="white"/>
</g>
<defs>
<linearGradient id="paint0_linear_102_8" x1="0" y1="19" x2="38" y2="19" gradientUnits="userSpaceOnUse">
<stop stop-color="#53687D"/>
<stop offset="1" stop-color="#364E67"/>
</linearGradient>
<clipPath id="clip0_102_8">
<rect width="38" height="38" fill="white"/>
</clipPath>
</defs>
</svg>
