<?xml version="1.0" encoding="utf-8"?>
<svg xmlns="http://www.w3.org/2000/svg" viewBox="0 0 44.008 44">
  <ellipse style="" cx="22.008" cy="22" rx="22" ry="22"/>
  <path d="M 0.297 25.564 C -0.066 23.978 -0.058 21.479 0.117 19.815 L 11.199 25.529 C 12.329 24.579 13.798 24 15.398 24 L 15.449 24 C 15.839 23.4 16.288 22.649 16.758 21.869 C 17.738 20.259 18.838 18.439 19.918 17.039 C 20.158 12.569 23.868 9 28.398 9 C 33.088 9 36.898 12.81 36.898 17.5 C 36.898 22.03 33.329 25.74 28.859 25.98 C 27.459 27.06 25.649 28.161 24.029 29.131 C 23.249 29.611 22.498 30.059 21.898 30.449 L 21.898 30.5 C 21.898 34.09 18.988 37 15.398 37 C 11.808 37 8.898 34.09 8.898 30.5 C 8.898 30.33 8.908 30.17 8.918 30 L 0.297 25.564 Z" style="stroke-width: 1; fill: rgb(255, 255, 255);"/>
  <path d="M 15.398 26 C 14.608 26 13.859 26.2 13.219 26.57 L 16.539 28.27 C 17.769 28.9 18.249 30.411 17.629 31.641 C 17.179 32.501 16.308 33 15.398 33 C 15.008 33 14.628 32.91 14.258 32.73 L 10.928 31.02 C 11.188 33.26 13.088 35 15.398 35 C 17.888 35 19.898 32.99 19.898 30.5 C 19.898 28.01 17.888 26 15.398 26 Z" style="stroke-width: 1;"/>
  <path d="M 28.398 13 C 30.888 13 32.898 15.01 32.898 17.5 C 32.898 19.99 30.888 22 28.398 22 C 25.908 22 23.898 19.99 23.898 17.5 C 23.898 15.01 25.908 13 28.398 13 Z M 28.398 11 C 24.818 11 21.898 13.92 21.898 17.5 C 21.898 21.08 24.818 24 28.398 24 C 31.978 24 34.898 21.08 34.898 17.5 C 34.898 13.92 31.978 11 28.398 11 Z" style="stroke-width: 1;"/>
</svg>